<svg width="70" height="70" viewBox="0 0 70 70" fill="none" xmlns="http://www.w3.org/2000/svg"><path fill-rule="evenodd" clip-rule="evenodd" d="M41.265 48.933a5.068 5.068 0 01-1.798 1.89c-1.085.672-2.367 1.008-3.746 1.144v1.225a1.167 1.167 0 01-2.333 0V52.01c-1.698-.13-3.153-.682-4.239-1.6-1.255-1.052-1.962-2.598-1.954-4.266a1.09 1.09 0 012.177 0c.008 1.081.409 1.94 1.183 2.604.644.544 1.598.934 2.833 1.058V41.57l-.067-.017-.105-.027a26.722 26.722 0 01-.326-.082c-1.21-.324-2.416-.696-3.46-1.38-.596-.39-1.138-.895-1.536-1.544-.457-.742-.702-1.653-.7-2.674a5.658 5.658 0 011.604-3.937c1.015-1.047 2.559-1.781 4.59-1.928V28.85a1.167 1.167 0 012.333 0v1.193c1.129.129 2.132.395 2.988.812 1.224.594 2.158 1.502 2.684 2.61.352.735.522 1.547.522 2.38a1.089 1.089 0 01-2.178 0 3.3 3.3 0 00-.308-1.442 3.138 3.138 0 00-.93-1.133c-.617-.481-1.535-.864-2.776-1.04v7.68l.103.026c.136.037.273.072.41.11 1.224.347 2.447.774 3.494 1.543a5.26 5.26 0 011.512 1.7c.441.8.675 1.762.674 2.854 0 1.048-.219 1.992-.65 2.789zm-11.403-11.39c.3.407.76.751 1.396 1.051.596.287 1.332.513 2.132.725v-7.152a6.098 6.098 0 00-1.604.35 3.913 3.913 0 00-1.43.914 3.482 3.482 0 00-.982 2.414c.005.8.192 1.29.488 1.699zm9.356 6.603c-.318-.477-.78-.86-1.409-1.194-.585-.315-1.304-.561-2.086-.783v7.601c.672-.08 1.286-.21 1.799-.406.888-.343 1.471-.81 1.828-1.465.238-.442.387-1 .388-1.755-.003-.913-.207-1.517-.52-1.998z" fill="#0C8543"/><path d="M17.154 34.534a1.166 1.166 0 00-1.534.606 19.918 19.918 0 00-.814 2.222 1.167 1.167 0 002.236.668c.198-.664.438-1.318.718-1.962a1.166 1.166 0 00-.606-1.534zm.683-3.344c2.014-2.884 4.651-5.347 7.54-7.173a1.166 1.166 0 111.245 1.973c-2.628 1.659-5.051 3.926-6.87 6.535a1.167 1.167 0 11-1.915-1.336z" fill="#0C8543"/><path fill-rule="evenodd" clip-rule="evenodd" d="M62.556 43.082c0 3.231-.596 6.813-1.56 9.064a8.461 8.461 0 013.115 6.562c0 4.686-3.807 8.484-8.503 8.484a8.491 8.491 0 01-6.635-3.186c-4.208 2.02-9.142 3.186-14.417 3.186-5.276 0-10.21-1.165-14.419-3.186a8.491 8.491 0 01-6.635 3.186C8.806 67.192 5 63.394 5 58.708a8.462 8.462 0 013.116-6.563c-.964-2.25-1.561-5.833-1.56-9.064C6.559 30.776 17.1 19.235 27.77 15.536l-.033-.09a2.294 2.294 0 01-.092-.288l-2.51-11.043C24.838 2.81 25.382 2 26.395 2c.285 0 .605.063.954.198l4.304 1.655c.798.308 1.851.46 2.903.46 1.053 0 2.106-.152 2.904-.46l4.303-1.655c.35-.135.67-.198.955-.198 1.013 0 1.557.811 1.26 2.115l-2.51 11.043c-.024.103-.06.202-.097.3a12.2 12.2 0 00-.029.078c10.67 3.699 21.214 15.24 21.214 27.546zm-31.14-28.87l.116.09h6.048l.115-.09 1.564-6.885-.403.155c-1.549.596-3.194.72-4.3.72-1.107 0-2.752-.124-4.298-.72l-.406-.155 1.564 6.884zM13.501 63.303c1.406 0 2.72-.632 3.604-1.733.208-.258.446-.482.7-.673a28.101 28.101 0 01-2.903-2.325 26.96 26.96 0 01-3.679-4.11 3.877 3.877 0 01-.645.693 4.578 4.578 0 00-1.69 3.553c0 2.534 2.069 4.595 4.613 4.595zm7.803-3.003c.174.055.347.119.515.2 3.82 1.833 8.225 2.802 12.735 2.802.912 0 1.815-.05 2.714-.128l-.223-1.594a.585.585 0 011.157-.161l.228 1.632c.864-.108 1.72-.248 2.562-.427l-.417-2.275a.584.584 0 011.148-.21l.405 2.214a28.489 28.489 0 002.57-.782l-.825-2.241a.584.584 0 011.095-.403l.82 2.223.277-.109.03-.012c.336-.141.67-.288 1-.443.324-.158.652-.328.986-.515l-1.825-2.998a.582.582 0 11.996-.606l1.828 3a24.214 24.214 0 002.252-1.636l-2.64-3.535a.583.583 0 01.934-.698l2.595 3.475.11-.097a5.01 5.01 0 00.143-.125c2.623-2.395 4.485-5.08 5.31-7.273.533-1.769.883-4.254.883-6.497 0-5.864-2.976-12.139-8.164-17.215-4.84-4.734-10.95-7.675-15.947-7.675-4.998 0-11.107 2.94-15.946 7.674-5.188 5.077-8.164 11.351-8.166 17.215 0 2.722.513 5.82 1.246 7.533.042.099.072.199.103.299l.027.087c.985 1.874 2.579 3.953 4.658 5.851 1.589 1.456 3.254 2.617 4.826 3.45zm30.7 1.269a4.604 4.604 0 003.604 1.733c2.545 0 4.614-2.061 4.614-4.595a4.58 4.58 0 00-1.69-3.553 3.875 3.875 0 01-.729-.805 26.792 26.792 0 01-3.754 4.222 28.016 28.016 0 01-2.826 2.27c.287.203.553.443.781.728z" fill="#0C8543"/></svg>