<svg width="70" height="70" viewBox="0 0 70 70" fill="none" xmlns="http://www.w3.org/2000/svg"><path d="M70 24.24c-.002-1.174-.351-2.377-1.147-3.386l-5.423-6.842a5.25 5.25 0 00-1.947-1.508A5.674 5.674 0 0059.146 12a5.36 5.36 0 00-2.81.779l-5.288 3.243c-.192.12-.497.247-.855.334a4.973 4.973 0 01-1.165.135c-.62.005-1.209-.126-1.525-.284l-5.178-2.472c-.973-.46-2.012-.634-3.043-.637-.743 0-1.483.095-2.201.29a6.662 6.662 0 00-2.047.929l-.224.155c-.452-.22-1.02-.5-1.644-.807-1.16-.557-2.433-.756-3.719-.765-1.162.006-2.322.175-3.402.622l-3.527 1.483c-.435.19-1.266.347-2.088.34-.822.007-1.653-.15-2.087-.34l-3.53-1.484a5.974 5.974 0 00-2.32-.448c-.89 0-1.764.173-2.585.5-.818.33-1.59.817-2.22 1.51L1.26 22.178A4.836 4.836 0 000 25.43a4.853 4.853 0 001.742 3.716l5.344 4.493-2.264 2.39.003.001a4.885 4.885 0 00-1.375 3.393 4.9 4.9 0 001.56 3.581l.577.54a4.98 4.98 0 001.382.896 4.892 4.892 0 00-.27 1.544 4.896 4.896 0 001.56 3.583l.577.54a5.09 5.09 0 004.64 1.225 4.86 4.86 0 001.147 1.622l.578.542a5.134 5.134 0 005.44.975 4.9 4.9 0 00.975 1.271l.58.543a5.085 5.085 0 003.478 1.363 5.085 5.085 0 003.65-1.53l1.967-2.024 2.881 2.595-.01-.01A5.087 5.087 0 0037.591 58a5.09 5.09 0 003.694-1.575l.543-.576c.27-.285.485-.599.674-.924l.51.463a5.084 5.084 0 003.429 1.317 5.083 5.083 0 003.696-1.576l.544-.574a4.848 4.848 0 001.116-1.962c.154.016.307.042.462.042a5.081 5.081 0 003.697-1.576l.542-.573.001-.002a4.891 4.891 0 001.344-3.365c0-.11-.01-.22-.017-.33a5.03 5.03 0 002.251-1.368l.544-.575a4.888 4.888 0 001.345-3.367 4.895 4.895 0 00-1.47-3.486l-.547-.613 8.642-9.422c.971-1.065 1.405-2.404 1.408-3.718zm-33.736-6.118l1.009-.7a2.82 2.82 0 01.845-.369c.36-.098.771-.152 1.165-.15.55-.005 1.06.11 1.347.253l5.177 2.472c1.026.483 2.124.663 3.222.668.706 0 1.412-.08 2.1-.247a6.941 6.941 0 001.975-.8l5.288-3.244c.205-.126.465-.2.755-.2.242 0 .494.054.708.152.215.098.39.234.514.392l5.423 6.841c.192.237.332.628.33 1.05.003.475-.176.928-.41 1.175l-.818.89-1.307-1.28a.59.59 0 00-.822 0 .564.564 0 000 .808l1.348 1.323-1.771 1.932-2.562-2.514a.59.59 0 00-.823 0 .563.563 0 000 .807l2.605 2.557-1.772 1.931-2.072-2.034a.59.59 0 00-.823 0 .564.564 0 000 .807l2.117 2.077-1.73 1.884-3.318-3.027a61.635 61.635 0 00-4.976-4.001l-5.952-4.207a6.14 6.14 0 00-1.893-.884 7.537 7.537 0 00-2.025-.274c-1.157.004-2.33.247-3.389.867l-2.149 1.274c-.2.118-.448.186-.721.186a1.69 1.69 0 01-.71-.157 1.342 1.342 0 01-.514-.405l-.475-.629-.002-.001a1.163 1.163 0 01.24-1.622l4.866-3.6zM8.158 40.824l-.047-.045-.003-.002h-.002a1.88 1.88 0 01-.597-1.378c.002-.48.176-.944.532-1.312l5.595-5.754a1.95 1.95 0 011.404-.587c.486 0 .962.174 1.336.521l.046.044.003.003c.397.371.596.868.597 1.378a1.874 1.874 0 01-.533 1.312l-5.59 5.752a1.95 1.95 0 01-1.406.587c-.487 0-.962-.172-1.335-.519zm7.3 5.245l-1.189 1.223c-.378.39-.885.587-1.404.587a1.94 1.94 0 01-1.337-.522l-.595-.556a1.87 1.87 0 01-.598-1.379c.001-.477.176-.944.532-1.31l7.465-7.683c.378-.39.885-.585 1.404-.586.488.001.963.173 1.337.522l.595.557c.397.372.596.869.597 1.378 0 .478-.176.946-.532 1.313l-1.187 1.221c-.027.027-.059.046-.086.073l-4.919 5.059c-.032.033-.053.07-.083.103zm7.038 2.701l-1.885 1.941c-.378.39-.886.586-1.406.587a1.948 1.948 0 01-1.336-.523l-.58-.542a1.872 1.872 0 01-.153-2.582l5.097-5.246a1.95 1.95 0 011.311-.508 1.95 1.95 0 011.338.523l.579.542c.397.371.595.868.597 1.377a1.87 1.87 0 01-.514 1.289c-.007.01-3.003 3.087-3.003 3.087-.017.017-.029.037-.045.055zm7.538 1.106l-2.977 3.064a1.95 1.95 0 01-1.405.587 1.952 1.952 0 01-1.338-.523l-.024-.023a1.875 1.875 0 01-.11-2.635l3.051-3.144c.376-.371.868-.56 1.375-.562.488.002.964.173 1.338.522l.026.025a1.88 1.88 0 01.064 2.689zm27.422-7.344l-.26.273a1.95 1.95 0 01-1.422.604 1.952 1.952 0 01-1.24-.448l-7.405-6.737a1.178 1.178 0 00-1.643.06 1.126 1.126 0 00.06 1.612l8.007 7.287a1.886 1.886 0 01.1 2.69l-.557.59c-.38.4-.896.602-1.423.603a1.948 1.948 0 01-1.318-.505l-8.005-7.297a1.18 1.18 0 00-1.645.06 1.126 1.126 0 00.062 1.612l7.013 6.393a1.88 1.88 0 01.083 2.667l-.561.591c-.38.401-.895.604-1.426.605-.478 0-.947-.166-1.319-.504l-7.31-6.652a1.179 1.179 0 00-1.644.06 1.128 1.128 0 00.062 1.614l3.719 3.388c.412.375.62.883.62 1.4 0 .464-.167.914-.505 1.273a1.927 1.927 0 01-1.406.594 1.963 1.963 0 01-1.325-.508L32.594 50.1a4.135 4.135 0 00-1.019-4.567l-.006-.006-.025-.024.006.006a4.298 4.298 0 00-2.944-1.154c-.074 0-.15.018-.224.022 0-.013.003-.026.003-.04.002-1.1-.44-2.21-1.317-3.029l-.579-.542a4.283 4.283 0 00-2.149-1.08c.16-.45.251-.92.251-1.386a4.137 4.137 0 00-1.317-3.031l-.596-.557a4.296 4.296 0 00-2.942-1.152c-.133 0-.265.026-.397.038a4.137 4.137 0 00-1.307-2.933l-.05-.048a4.302 4.302 0 00-2.943-1.153 4.3 4.3 0 00-3.088 1.293l-1.047 1.078-6.638-5.582a1.069 1.069 0 01-.108-1.547l6.429-7.097c.16-.18.439-.377.788-.515.345-.14.754-.219 1.117-.217.32-.002.6.058.794.14l3.53 1.485c1.133.468 2.369.642 3.614.648 1.244-.006 2.48-.18 3.615-.648l3.528-1.483c.41-.18 1.146-.32 1.874-.315.735-.007 1.46.143 1.862.314l-2.246 1.661a4.946 4.946 0 00-2.012 3.978 4.9 4.9 0 00.993 2.954l-.001-.002.475.63a5.23 5.23 0 001.958 1.572 5.634 5.634 0 002.382.529c.923 0 1.872-.23 2.725-.734l2.149-1.275c.285-.175.82-.323 1.384-.319.332 0 .668.046.959.128.292.08.534.199.694.313l5.952 4.206c1.286.907 3.443 2.642 4.604 3.701l2.013 1.836.01-.01 4.005 3.654c.408.372.615.878.616 1.396 0 .472-.17.93-.513 1.296z" fill="#0C8543"/></svg>