<svg width="70" height="70" viewBox="0 0 70 70" fill="none" xmlns="http://www.w3.org/2000/svg"><path fill-rule="evenodd" clip-rule="evenodd" d="M65.732 6H3.415C1.537 6 0 7.4 0 9.111v41.222c0 1.711 1.537 3.111 3.415 3.111h29.178l-2.23 5.348.002-.003c-.112.27-.192.576-.193.929 0 .275.052.577.184.878.193.453.594.873 1.053 1.11a2.85 2.85 0 001.337.323c.181 0 .358-.017.529-.045l-.002.001 2.8-.457 1.76 2.035a2.755 2.755 0 002.085.96 2.659 2.659 0 001.63-.552c.408-.322.64-.692.787-1.038l1.864-4.474 1.864 4.473v.001c.145.346.38.716.787 1.038a2.66 2.66 0 001.63.553 2.758 2.758 0 002.085-.96v-.001l1.76-2.035 2.8.457h-.002c.17.027.347.044.53.044.271 0 .568-.035.876-.13.46-.14.944-.445 1.256-.867a2.17 2.17 0 00.441-1.313c0-.353-.08-.659-.193-.928l-2.228-5.346h9.927c1.878 0 3.414-1.4 3.414-3.11V9.111C69.146 7.4 67.61 6 65.732 6zm-5.395 43.556l-3.414-3.112h3.635l3.415 3.112h-3.636zm-16.374 0c-4.471 0-8.11-3.315-8.11-7.39 0-4.073 3.639-7.388 8.11-7.388 4.472 0 8.11 3.315 8.11 7.389s-3.638 7.389-8.11 7.389zm0-18.667c-6.838 0-12.378 5.05-12.378 11.278 0 .664.075 1.312.197 1.944H10.244V15.333h48.658v28.778h-2.757c.121-.632.197-1.28.197-1.944 0-6.229-5.54-11.278-12.379-11.278zm17.5 14.73v-3.507l3.415 3.111v3.507l-3.415-3.11zm0-5.156v-3.297l3.415 3.111v3.297l-3.415-3.11zM4.268 49.556V9.889h60.61v28.738l-3.415-3.112V13.778c0-.428-.384-.778-.853-.778H8.537c-.47 0-.854.35-.854.778v31.889c0 .427.384.777.854.777h23.975a11.055 11.055 0 001.827 2.808l-.126.304H4.268zm35.111 9.513l-.22-.254a3.46 3.46 0 00-1.315-.92 4.03 4.03 0 00-1.533-.31c-.18.001-.374.014-.584.05l.011-.003-.35.057 2.4-5.757a13.075 13.075 0 004.012 1.33l-2.42 5.807zm13.29-1.435a3.48 3.48 0 00-.584-.048 4.03 4.03 0 00-1.533.308c-.463.195-.91.462-1.316.921l-.219.254-2.45-5.88a12.985 12.985 0 003.953-1.47l2.487 5.969-.35-.057.013.003zm1.23-8.761a11.037 11.037 0 001.427-2.234l3.2 2.917h-4.343l-.284-.683zM18.78 21.944h23.903c.708 0 1.28.523 1.28 1.167s-.572 1.167-1.28 1.167H18.78c-.708 0-1.281-.523-1.281-1.167s.573-1.167 1.28-1.167zm0 7.778h9.39c.708 0 1.281.523 1.281 1.167s-.573 1.167-1.28 1.167h-9.39c-.708 0-1.281-.523-1.281-1.167s.573-1.167 1.28-1.167zm20.488 12.445c0-2.363 2.101-4.278 4.695-4.278 2.595 0 4.695 1.915 4.695 4.278 0 2.362-2.1 4.277-4.695 4.277-2.594 0-4.695-1.915-4.695-4.277zm2.561 0c0 1.072.958 1.944 2.134 1.944 1.177 0 2.135-.872 2.135-1.944 0-1.073-.958-1.945-2.135-1.945-1.176 0-2.134.872-2.134 1.945z" fill="#0C8543"/></svg>